HIERARCHY
ROOT Hips
{
	OFFSET -0.179506 -22.333345 2.821913
	CHANNELS 6 Xposition Yposition Zposition Zrotation Yrotation Xrotation 
	JOINT LeftUpLeg
	{
		OFFSET 6.951974 -9.140623 -0.681533
		CHANNELS 3 Zrotation Yrotation Xrotation
		JOINT LeftLeg
		{
			OFFSET 3.427654 -37.519855 -0.449580
			CHANNELS 3 Zrotation Yrotation Xrotation
			JOINT LeftFoot
			{
				OFFSET -1.359570 -39.796059 -4.369333
				CHANNELS 3 Zrotation Yrotation Xrotation
				JOINT LeftToe
				{
					OFFSET 2.635814 -5.579078 11.928840
					CHANNELS 3 Zrotation Yrotation Xrotation
					End Site
					{
						OFFSET 0.000000 0.000000 0.000000
					}
				}
			}
		}
	}
	JOINT RightUpLeg
	{
		OFFSET -6.767048 -9.052170 -0.431982
		CHANNELS 3 Zrotation Yrotation Xrotation
		JOINT RightLeg
		{
			OFFSET -3.829005 -38.256897 -0.885003
			CHANNELS 3 Zrotation Yrotation Xrotation
			JOINT RightFoot
			{
				OFFSET 1.577377 -39.841461 -4.231180
				CHANNELS 3 Zrotation Yrotation Xrotation
				JOINT RightToe
				{
					OFFSET -2.537174 -4.814398 12.334795
					CHANNELS 3 Zrotation Yrotation Xrotation
					End Site
					{
						OFFSET 0.000000 0.000000 0.000000
					}
				}
			}
		}
	}
	JOINT Spine
	{
		OFFSET -0.253288 10.896323 -2.669631
		CHANNELS 3 Zrotation Yrotation Xrotation
		JOINT Spine1
		{
			OFFSET 0.548704 13.518043 0.109247
			CHANNELS 3 Zrotation Yrotation Xrotation
			JOINT Spine2
			{
				OFFSET 0.145701 5.292222 2.542457
				CHANNELS 3 Zrotation Yrotation Xrotation
				JOINT Neck
				{
					OFFSET -0.277840 21.387037 -4.285703
					CHANNELS 3 Zrotation Yrotation Xrotation
					JOINT Head
					{
						OFFSET 0.515184 6.496960 5.134897
						CHANNELS 3 Zrotation Yrotation Xrotation
						End Site
						{
							OFFSET 0.000000 0.000000 0.000000
						}
					}
				}
				JOINT LeftShoulder
				{
					OFFSET 7.884473 12.174932 -3.408961
					CHANNELS 3 Zrotation Yrotation Xrotation
					JOINT LeftArm
					{
						OFFSET 9.097692 3.046888 -0.886815
						CHANNELS 3 Zrotation Yrotation Xrotation
						JOINT LeftForeArm
						{
							OFFSET 25.961220 -1.277207 -2.745643
							CHANNELS 3 Zrotation Yrotation Xrotation
							JOINT LeftHand
							{
								OFFSET 24.923361 0.898606 -0.117091
								CHANNELS 3 Zrotation Yrotation Xrotation
								End Site
								{
									OFFSET 0.000000 0.000000 0.000000
								}
							}
						}
					}
				}
				JOINT RightShoulder
				{
					OFFSET -8.175920 11.883285 -3.861528
					CHANNELS 3 Zrotation Yrotation Xrotation
					JOINT RightArm
					{
						OFFSET -9.601238 3.255117 -0.914307
						CHANNELS 3 Zrotation Yrotation Xrotation
						JOINT RightForeArm
						{
							OFFSET -25.374195 -1.332924 -2.140099
							CHANNELS 3 Zrotation Yrotation Xrotation
							JOINT RightHand
							{
								OFFSET -25.529810 0.777228 -0.555919
								CHANNELS 3 Zrotation Yrotation Xrotation
								End Site
								{
									OFFSET 0.000000 0.000000 0.000000
								}
							}
						}
					}
				}
			}
		}
	}
}
MOTION
Frames: 8
Frame Time: 0.033333
-0.179506 60.740417 2.821913 113.337471 -47.293426 148.558587 2.805149 -1.984248 -2.676069 -3.773682 -11.699893 17.199520 -4.873934 7.339308 12.619465 0.366371 -0.739504 -0.491307 -4.553771 -1.817142 -10.050827 0.373983 0.404604 32.634374 3.874738 -6.954571 15.187905 2.379055 0.993322 -0.174135 -2.025708 -2.435283 19.404893 -1.472122 -1.719583 -5.297858 1.543365 -2.893689 5.831731 0.344371 -5.353546 4.135232 5.501434 1.365984 0.179158 -18.720233 2.219476 7.987771 -50.929226 2.041108 8.847593 -4.264101 -22.785955 6.042631 -5.395137 -10.709393 -4.750759 10.136009 -0.639642 0.342799 64.105091 -8.521000 13.337669 -10.049502 26.444357 -2.552097 9.047804 5.552187 -9.321523 
-0.192519 60.767731 2.872272 113.488121 -47.220852 148.407301 2.893072 -1.941015 -2.609897 -3.745187 -11.699510 17.158312 -4.857393 7.372399 12.544283 0.380274 -0.734059 -0.489984 -4.507502 -1.833992 -10.033645 0.406401 0.325022 32.666879 3.956114 -6.866635 15.217514 2.410898 0.979623 -0.169375 -2.028246 -2.456255 19.349852 -1.464148 -1.733797 -5.228946 1.530387 -2.918850 5.771056 0.371513 -5.349504 4.195586 5.425956 1.348386 0.189722 -18.801576 2.304427 8.039284 -50.915325 2.050184 8.862461 -4.154466 -22.865479 6.071350 -5.365152 -10.760495 -4.700886 10.193871 -0.656730 0.349163 64.028784 -8.447560 13.396667 -10.088295 26.407781 -2.548534 8.999805 5.592334 -9.394992 
-0.212298 60.794647 2.926575 113.583184 -47.172152 148.270704 2.939153 -1.919425 -2.518710 -3.733409 -11.675045 17.114554 -4.847126 7.413984 12.475880 0.409822 -0.737822 -0.493250 -4.483717 -1.844959 -10.006136 0.420324 0.305006 32.726271 4.005509 -6.833249 15.235982 2.409418 0.981774 -0.169199 -2.035659 -2.439644 19.315620 -1.456113 -1.754533 -5.161515 1.525118 -2.939513 5.695515 0.416769 -5.333200 4.245663 5.401700 1.404099 0.191152 -18.853244 2.323940 8.094228 -50.945154 2.038049 8.873637 -4.063510 -22.860133 6.029665 -5.263776 -10.883265 -4.774991 10.214759 -0.632144 0.375059 64.002120 -8.416193 13.419468 -10.170543 26.366616 -2.491533 8.953601 5.658368 -9.428140 
-0.227069 60.821037 2.988837 113.726822 -47.188730 148.081981 2.960593 -1.908733 -2.448504 -3.682858 -11.658508 17.118534 -4.853481 7.404481 12.429611 0.424612 -0.735459 -0.494660 -4.447104 -1.863801 -9.920209 0.418514 0.306126 32.721461 4.029281 -6.825732 15.300398 2.414465 0.974833 -0.166905 -2.038813 -2.425117 19.292868 -1.446174 -1.761883 -5.121330 1.529830 -2.942823 5.660734 0.422251 -5.313154 4.323016 5.385214 1.467854 0.201909 -18.882907 2.316539 8.086081 -50.967454 2.031935 8.896814 -4.021596 -22.891053 6.020396 -5.158696 -10.960165 -4.808418 10.226071 -0.631118 0.385988 63.969203 -8.423118 13.422719 -10.211609 26.340618 -2.474568 8.869214 5.715167 -9.460758 
-0.237938 60.847107 3.036443 113.821299 -47.208570 147.995718 2.973780 -1.911562 -2.468628 -3.657305 -11.562037 17.178701 -4.876435 7.368590 12.357530 0.433061 -0.736469 -0.488489 -4.440018 -1.891181 -9.833319 0.407517 0.276377 32.594022 4.056462 -6.847206 15.294402 2.387128 0.972772 -0.153633 -2.028868 -2.401247 19.234125 -1.449103 -1.772394 -5.093391 1.517984 -2.943599 5.658018 0.445038 -5.293954 4.266170 5.374724 1.512334 0.199551 -18.915302 2.297442 8.070395 -51.023284 1.976975 8.875778 -3.898718 -22.785180 5.949045 -5.083333 -10.990729 -4.869819 10.244650 -0.618824 0.401401 63.968339 -8.408439 13.425589 -10.265937 26.257456 -2.437559 8.816200 5.769540 -9.512024 
-0.238921 60.872665 3.115661 113.983089 -47.244711 147.803036 2.998580 -1.871838 -2.283898 -3.586376 -11.660703 16.921333 -4.933716 7.436946 12.340455 0.442201 -0.736608 -0.481940 -4.399175 -1.928894 -9.731144 0.401065 0.289260 32.535050 4.103906 -6.885544 15.352013 2.392424 0.970686 -0.138834 -2.024424 -2.396684 19.205034 -1.454311 -1.774517 -5.094121 1.523253 -2.944381 5.615847 0.462040 -5.282291 4.337822 5.372383 1.584990 0.350251 -18.962327 2.311212 8.040081 -51.072134 1.944660 8.829255 -3.789008 -22.713744 5.907475 -5.131007 -11.010632 -4.719196 10.267922 -0.618859 0.409330 63.939563 -8.372157 13.444526 -10.273821 26.078898 -2.322009 8.760910 5.788817 -9.440045 
-0.265093 60.897743 3.158594 114.095705 -47.278229 147.734115 3.013393 -1.877658 -2.381531 -3.570138 -11.538321 17.067231 -4.918861 7.388689 12.218693 0.438722 -0.736728 -0.469658 -4.381952 -1.952124 -9.663623 0.402495 0.292963 32.399664 4.081531 -6.892211 15.297023 2.357591 0.971029 -0.147829 -2.007418 -2.373039 19.183436 -1.450126 -1.779563 -5.069218 1.492274 -2.936298 5.611048 0.482238 -5.277861 4.287620 5.367813 1.630357 0.348182 -18.948827 2.287513 8.008712 -51.123278 1.912267 8.851074 -3.714204 -22.692396 5.896072 -5.075515 -11.011551 -4.799617 10.287264 -0.630680 0.399818 63.923335 -8.378629 13.446298 -10.273798 26.029806 -2.215491 8.695304 5.813158 -9.419996 
-0.285801 60.922897 3.140815 114.094814 -47.166383 147.814380 3.043941 -1.856097 -2.462367 -3.546800 -11.463239 17.148350 -4.865814 7.423563 12.044837 0.438346 -0.724674 -0.455287 -4.364285 -1.971278 -9.642701 0.429799 0.292934 32.240126 4.103809 -6.838682 15.078814 2.337027 0.966578 -0.148242 -1.997697 -2.349499 19.150851 -1.442886 -1.802759 -5.054728 1.461660 -2.920576 5.615691 0.496896 -5.253068 4.267547 5.339421 1.668884 0.312704 -18.953703 2.326435 7.992278 -51.177692 1.924240 8.845199 -3.612468 -22.594828 5.859044 -4.995315 -11.004760 -4.849945 10.267665 -0.643697 0.348878 63.965500 -8.370468 13.446778 -10.305492 25.991340 -2.197483 8.570063 5.821182 -9.450188 
